<?xml version="1.0" encoding="iso-8859-1"?>
<!-- Generator: Adobe Illustrator 20.0.0, SVG Export Plug-In . SVG Version: 6.00 Build 0)  -->
<svg version="1.1" id="Layer_1_1_" xmlns="http://www.w3.org/2000/svg" xmlns:xlink="http://www.w3.org/1999/xlink" x="0px" y="0px"
	 viewBox="0 0 64 64" style="enable-background:new 0 0 64 64;" xml:space="preserve">
<g id="Guide">
	<g>
	</g>
	<g>
	</g>
	<g>
	</g>
	<g>
	</g>
	<g>
	</g>
	<g>
	</g>
	<g>
	</g>
	<g>
	</g>
	<g>
	</g>
	<g>
	</g>
	<g>
	</g>
	<g>
	</g>
	<g>
	</g>
	<g>
	</g>
	<g>
	</g>
	<g>
	</g>
	<g>
	</g>
	<g>
	</g>
	<g>
	</g>
	<g>
	</g>
	<g>
	</g>
	<g>
	</g>
	<g>
	</g>
	<g>
	</g>
	<g>
	</g>
	<g>
	</g>
	<g>
	</g>
	<g>
	</g>
	<g>
	</g>
	<g>
	</g>
	<g>
	</g>
	<g>
	</g>
	<g>
	</g>
	<g>
	</g>
	<g>
	</g>
	<g>
	</g>
</g>
<path d="M3,19h1v42c0,1.654,1.346,3,3,3s3-1.346,3-3V19h1c1.654,0,3-1.346,3-3V6c0-1.654-1.346-3-3-3c-0.771,0-1.468,0.301-2,0.78
	C8.468,3.301,7.771,3,7,3S5.532,3.301,5,3.78C4.468,3.301,3.771,3,3,3C1.346,3,0,4.346,0,6v10C0,17.654,1.346,19,3,19z M2,6
	c0-0.552,0.449-1,1-1s1,0.448,1,1v8h2V6c0-0.552,0.449-1,1-1s1,0.448,1,1v8h2V6c0-0.552,0.449-1,1-1s1,0.448,1,1v10
	c0,0.552-0.449,1-1,1H9c-0.552,0-1,0.447-1,1v43c0,0.552-0.449,1-1,1s-1-0.448-1-1V18c0-0.553-0.448-1-1-1H3c-0.551,0-1-0.448-1-1V6
	z"/>
<path d="M19,13h4c1.654,0,3-1.346,3-3V8h-2v2c0,0.552-0.449,1-1,1h-4c-1.654,0-3,1.346-3,3v2h2v-2C18,13.448,18.449,13,19,13z"/>
<path d="M27,16h2v-2c0-0.552,0.449-1,1-1h4c1.654,0,3-1.346,3-3V8h-2v2c0,0.552-0.449,1-1,1h-4c-1.654,0-3,1.346-3,3V16z"/>
<path d="M41,13h4c1.654,0,3-1.346,3-3V8h-2v2c0,0.552-0.449,1-1,1h-4c-1.654,0-3,1.346-3,3v2h2v-2C40,13.448,40.449,13,41,13z"/>
<path d="M57,3c-3.86,0-7,3.141-7,7v6c0,2.415,1.721,4.435,4,4.899V61c0,1.654,1.346,3,3,3s3-1.346,3-3V20.899
	c2.279-0.465,4-2.484,4-4.899v-6C64,6.141,60.86,3,57,3z M62,16c0,1.654-1.346,3-3,3c-0.552,0-1,0.447-1,1v41c0,0.552-0.449,1-1,1
	s-1-0.448-1-1V20c0-0.553-0.448-1-1-1c-1.654,0-3-1.346-3-3v-6c0-2.757,2.243-5,5-5s5,2.243,5,5V16z"/>
<rect x="31" y="58" width="2" height="2"/>
<rect x="27" y="62" width="2" height="2"/>
<rect x="31" y="62" width="2" height="2"/>
<rect x="35" y="62" width="2" height="2"/>
<rect x="31" y="4" width="2" height="2"/>
<rect x="35" width="2" height="2"/>
<rect x="31" width="2" height="2"/>
<rect x="27" width="2" height="2"/>
<path d="M32,56c10.477,0,19-8.523,19-19s-8.523-19-19-19s-19,8.523-19,19S21.523,56,32,56z M32,20c9.374,0,17,7.626,17,17
	s-7.626,17-17,17s-17-7.626-17-17S22.626,20,32,20z"/>
<path d="M32,51c7.72,0,14-6.28,14-14s-6.28-14-14-14s-14,6.28-14,14S24.28,51,32,51z M32,25c6.617,0,12,5.383,12,12s-5.383,12-12,12
	s-12-5.383-12-12S25.383,25,32,25z"/>
</svg>
